<?xml version="1.0" encoding="UTF-8"?>
<svg xmlns="http://www.w3.org/2000/svg" xmlns:xlink="http://www.w3.org/1999/xlink" width="45px" height="px" viewBox="0 0 45 31" version="1.1">
<g id="surface1">
<path style=" stroke:none;fill-rule:evenodd;fill:rgb(98.431373%,31.372549%,23.137255%);fill-opacity:1;" d="M 44.765625 14.484375 C 44.441406 14.160156 40.335938 8.941406 39.644531 8.082031 C 38.898438 7.21875 38.578125 7.378906 38.09375 7.4375 C 37.617188 7.492188 32.441406 8.40625 31.851562 8.457031 C 31.261719 8.5625 30.890625 8.78125 31.261719 9.320312 C 31.585938 9.800781 34.996094 14.648438 35.746094 15.777344 L 22.140625 19.0625 L 11.367188 0.8125 C 10.9375 0.167969 10.832031 -0.046875 9.871094 0.0078125 C 8.910156 0.0625 1.390625 0.707031 0.855469 0.707031 C 0.320312 0.761719 -0.265625 0.976562 0.269531 2.269531 C 0.800781 3.558594 9.339844 22.070312 9.550781 22.609375 C 9.761719 23.148438 10.40625 24.011719 11.84375 23.6875 C 13.339844 23.308594 18.460938 21.964844 21.289062 21.210938 C 22.78125 23.898438 25.769531 29.390625 26.359375 30.195312 C 27.101562 31.273438 27.640625 31.058594 28.757812 30.734375 C 29.664062 30.464844 42.738281 25.730469 43.320312 25.460938 C 43.910156 25.191406 44.28125 25.03125 43.855469 24.4375 C 43.535156 24.007812 40.121094 19.324219 38.304688 16.902344 C 39.535156 16.578125 43.960938 15.394531 44.441406 15.234375 C 44.976562 15.078125 45.082031 14.808594 44.765625 14.484375 Z M 20.058594 19.597656 C 19.898438 19.65625 12.273438 21.480469 11.894531 21.589844 C 11.46875 21.695312 11.46875 21.644531 11.46875 21.480469 C 11.367188 21.320312 2.402344 2.589844 2.242188 2.375 C 2.136719 2.164062 2.136719 1.945312 2.242188 1.945312 C 2.347656 1.945312 9.445312 1.300781 9.65625 1.300781 C 9.921875 1.300781 9.867188 1.355469 9.976562 1.515625 C 9.976562 1.515625 19.953125 18.898438 20.113281 19.167969 C 20.328125 19.4375 20.21875 19.542969 20.058594 19.597656 Z M 41.507812 23.632812 C 41.617188 23.847656 41.777344 23.957031 41.347656 24.066406 C 40.976562 24.226562 28.492188 28.480469 28.222656 28.585938 C 27.957031 28.691406 27.796875 28.75 27.480469 28.261719 C 27.15625 27.78125 23.101562 20.726562 23.101562 20.726562 L 36.386719 17.230469 C 36.710938 17.125 36.816406 17.066406 37.027344 17.390625 C 37.238281 17.769531 41.402344 23.472656 41.507812 23.632812 Z M 42.359375 14.160156 C 42.039062 14.214844 37.183594 15.453125 37.183594 15.453125 L 33.183594 9.964844 C 33.078125 9.800781 32.972656 9.640625 33.238281 9.585938 C 33.507812 9.53125 38.042969 8.726562 38.253906 8.675781 C 38.464844 8.617188 38.628906 8.566406 38.894531 8.941406 C 39.160156 9.265625 42.578125 13.679688 42.738281 13.839844 C 42.894531 14.003906 42.683594 14.109375 42.359375 14.160156 Z M 42.359375 14.160156 "/>
</g>
</svg>
